PathFileType	4	(X/Y/Z)	OpenSim_Sub08_CSBaseline_Accel.trc
DataRate	CameraRate	NumFrames	NumMarkers	Units	OrigDataRate	OrigDataStartFrame	OrigNumFrames
100	100	31	8	m	100	683	5461
Frame#	Time	torso_imu_offset_imu	pelvis_imu_offset_imu	tibia_r_imu_offset_imu	femur_r_imu_offset_imu	tibia_l_imu_offset_imu	femur_l_imu_offset_imu	toes_r_imu_offset_imu	toes_l_imu_offset_imu
				X1	Y1	Z1	X2	Y2	Z2	X3	Y3	Z3	X4	Y4	Z4	X5	Y5	Z5	X6	Y6	Z6	X7	Y7	Z7	X8		Y8	Z8	

683	6.82000000	8.71180700	0.34698900	6.26806600	9.50607700	-0.82261900	3.24052100	12.79765600	0.93696600	0.72945400	8.39186200	-3.73988800	2.55059000	9.95962500	0.03614400	-0.44181300	9.27836900	2.33676300	-1.17807300	16.29434900	-2.07609200	8.58495700	5.82773400	0.49675800	10.50461500
684	6.83000000	8.82295200	0.32386900	6.31242600	9.63554400	-1.03354700	3.47153400	12.71248200	2.78238000	0.83401300	8.39654600	-4.20612900	2.29089700	9.90699600	0.06185400	-0.50482600	9.24234900	2.72015900	-1.06944400	16.52151700	-1.01936500	7.93659700	5.61336300	0.70870500	10.70557700
685	6.84000000	8.89993300	0.36078300	6.43811000	9.54560300	-1.15767500	3.64294800	12.38071400	4.28343100	0.63831800	8.44529500	-4.56106500	2.00848100	9.87344500	-0.26947700	-0.40829100	9.19606300	3.09543200	-0.97598900	16.35074200	0.30047500	6.95048500	5.47196300	0.87683000	10.96336000
686	6.85000000	9.04762300	0.34795800	6.54244500	9.34149800	-1.21035400	3.81636300	11.85461600	4.47708700	0.61817300	8.63338200	-4.84967100	1.85226200	9.90580200	-0.42012800	-0.33449300	9.19192400	3.32843300	-1.07160200	16.29762500	1.46002900	5.86997900	5.88169700	0.63494000	10.67425200
687	6.86000000	9.03636000	0.32327500	6.54802300	9.08063700	-1.07853800	3.72368500	11.21005000	3.47904700	0.62659400	8.95430200	-5.43697600	2.08092900	9.94836800	-0.31838900	-0.55030600	9.08777300	3.38213000	-1.20574500	16.38043700	2.78970900	4.83303000	5.78556900	0.66682300	10.74981400
688	6.87000000	9.03906000	0.28412500	6.50372500	8.90479300	-0.77567100	3.55885900	10.58807700	1.91267600	0.73545300	9.18594100	-6.24653800	2.44673700	9.84136100	-0.43056300	-0.42291900	8.95335500	3.41409200	-1.44254000	16.57654800	3.45798800	3.50546200	6.14238000	0.59933600	10.45161400
689	6.88000000	8.96143600	0.27366800	6.42748700	8.94198400	-0.39285700	3.32085600	10.07826600	0.50892200	0.94066800	9.23129700	-6.77655200	2.72742500	9.64438200	-0.94259000	-0.48652100	8.73394600	3.64323600	-1.66748800	16.30213000	4.26070100	2.07420700	5.65486800	0.85405700	10.93512800
690	6.89000000	8.97580100	0.39642900	6.33551900	9.10289800	0.01989100	3.20547900	9.70302000	-0.36255800	1.00131300	9.21211700	-6.78001000	2.69786500	9.64644700	-1.51702600	-0.64819600	8.76731900	3.65237500	-1.77387100	15.81992600	5.88900500	0.85498300	5.65207700	0.88469800	10.87951400
691	6.90000000	9.11469000	0.46764600	6.35169600	9.27542400	0.21124600	3.27457300	9.49087600	-0.48295400	1.01368100	9.27122500	-6.30542700	2.58776900	9.65485300	-1.77580500	-0.96741700	8.77193400	3.57923100	-1.75489600	15.53818800	7.61050800	-0.10090300	6.00429600	1.03696000	10.65037100
692	6.91000000	9.26580100	0.48676700	6.38546200	9.38172100	0.34840100	3.31221300	9.11205000	0.05906200	0.83746700	9.49469900	-5.53650400	2.30662300	9.65988700	-1.95922300	-1.10399800	8.72458100	3.47645300	-1.74136600	15.30985800	7.98316400	-0.85142800	5.97428000	0.80103800	10.52051600
693	6.92000000	9.33752600	0.50204200	6.43247600	9.44423700	0.32224000	3.26645000	8.62107800	1.08489400	0.68472400	9.63504200	-4.62286600	2.00291100	9.70591900	-2.08490000	-1.33847800	8.78113300	3.42575900	-1.78784100	14.89831800	6.66910600	-1.62121000	5.36633700	1.37406800	11.24556600
694	6.93000000	9.36185800	0.53204600	6.42657000	9.57950400	0.22072600	3.21237600	8.18030800	2.22340400	0.44109200	9.75844300	-4.13985500	1.86940900	10.25070100	-1.90750800	-0.81917700	9.09088300	3.43282500	-1.85043100	14.63303300	5.54542100	-1.78344600	5.61806500	0.26411900	10.72663700
695	6.94000000	9.55522300	0.55520500	6.49345400	9.60954300	0.03750700	3.10128800	8.01519400	3.18883100	0.03943800	9.72680600	-4.13759600	2.16372900	10.31078000	-1.59807500	-0.05534400	9.22092800	3.47793100	-1.81478700	14.38570700	4.72402500	-1.55530200	5.98954000	0.74245600	10.70653500
696	6.95000000	9.64988600	0.60721600	6.47895600	9.67539200	-0.06902400	2.95714200	7.90130600	3.55141400	0.00117300	9.49585300	-4.28951600	2.34131600	10.04309100	-1.89236300	-0.28356800	9.52373400	3.59634400	-1.65718400	13.87671800	3.98443800	-1.21263000	5.83352400	0.69111700	10.83272900
697	6.96000000	9.60739700	0.62114500	6.41874000	9.82241700	-0.13682400	2.68013500	7.79588800	3.23063700	-0.12637300	9.04771000	-4.36817100	2.59439000	10.29500300	-2.66007200	-0.36203900	9.58404100	3.84917700	-1.63774000	13.32826900	3.96112400	-0.30979500	5.99339900	0.46275600	10.75337000
698	6.97000000	9.55340700	0.60399300	6.18053700	9.95044500	-0.25478800	2.34065500	7.75772100	2.83199700	-0.30519400	8.60625200	-4.40577500	3.15114700	10.45616600	-3.62422000	-0.34871900	9.67926200	3.92087800	-1.40331700	10.67821300	1.44363000	1.79705200	5.49708100	0.74635200	11.19994300
699	6.98000000	9.69015500	0.58103600	6.32051100	9.97495700	-0.48297800	2.17077000	7.94245700	2.46270800	-0.29664900	8.30366900	-4.16202300	3.56382900	10.42614300	-3.97596000	-0.25245200	9.78043300	3.88425300	-1.13350900	-2.09853000	-7.18031600	6.90921800	5.87366600	0.63569500	10.79397200
700	6.99000000	9.96933400	0.52657800	6.28191700	10.16611700	-0.63608900	2.20414900	9.62013500	2.09019300	0.86003200	8.53484900	-3.81708800	3.96398400	10.42985800	-3.66393700	-0.26782300	9.82973100	3.70357700	-0.97836800	0.85097800	-2.12172800	14.89473600	5.97295900	0.47449100	10.85482500
701	7	10.46051700	0.41711700	6.44271300	10.41624200	-0.44552700	2.62033000	12.99232400	1.22178300	3.21601700	9.75655600	-3.25133400	4.04391400	10.82821900	-2.95860600	-0.34424800	9.76106400	3.72097600	-0.93456300	-3.96930100	-1.14550500	11.93198100	5.94993100	0.35142300	10.71835800
702	7.01000000	11.05743400	0.22935300	6.71165300	10.54983600	0.14320200	3.12527600	15.42607500	-2.81966600	5.25611800	11.25760300	-1.99753700	3.62874800	11.23445700	-2.17732700	-0.01179100	9.80407400	4.13651900	-0.75198100	-3.56063000	-7.68890500	4.10638700	5.28397700	0.65358900	11.26009500
703	7.02000000	11.04687600	0.06012800	6.71249000	10.79793200	0.64621900	3.29283000	13.63082100	-8.98331300	4.48648800	11.93886900	-0.91790800	3.13900300	11.62666400	-1.36957200	0.38856400	10.19799400	4.33619700	-0.60112200	7.55749700	-2.45760900	9.58319000	5.31973000	0.93029300	11.29640300
704	7.03000000	10.15303000	0.01724200	6.49545000	11.22265600	1.02931800	3.25477700	9.52824600	-11.73711500	3.24525200	11.38590100	-0.65794800	3.23100000	11.65604400	-0.86639300	0.48916100	10.31758400	4.46416300	-0.66665900	10.89493100	-0.83375300	11.32792900	5.36904500	0.90113100	11.10326300
705	7.04000000	9.92815900	-0.01742000	6.55187500	11.55347100	1.18562800	3.41178300	8.09803500	-9.78675500	3.35131500	11.41798800	-0.95737000	3.36737700	11.87370600	-0.40694800	0.72505500	10.18535700	4.69304100	-0.81837700	5.64453400	1.41643000	10.72591100	4.99098100	0.79896500	11.23906900
706	7.05000000	10.65859600	-0.10631300	6.71896400	11.48665900	1.44399700	4.13080700	11.12036200	-5.63304000	3.34792900	12.48330600	-1.52401900	3.22469700	12.49132100	0.34841200	0.85993100	9.96464300	5.31896200	-1.08062400	8.40397700	5.53783100	13.16096200	4.79269100	0.87038700	11.32677600
707	7.06000000	11.18663600	-0.17221500	6.81963200	11.23664900	1.43498900	4.96451300	14.79261800	-0.23290800	3.38139800	13.25940800	-2.85433800	2.93197900	12.90070400	0.89673800	1.28436900	9.75369700	5.80473700	-1.03167100	11.63055200	0.67500600	12.63184800	4.45050400	1.14928600	11.52937100
708	7.07000000	11.03282600	-0.17040500	6.83272200	11.03150900	1.26863100	5.38286700	15.03541300	4.62673900	2.44975000	12.90860700	-4.23165600	1.49865500	12.98708300	1.19591400	1.31077900	9.70898300	5.99857300	-0.92031400	10.62982600	-3.27526400	10.51706800	4.94431500	1.19402400	11.02632700
709	7.08000000	10.78349600	-0.20041300	6.84932800	10.54071900	0.95851700	5.57421600	11.11880700	5.44399000	0.45450500	11.62909000	-4.46612100	-0.39161500	13.30838100	0.94498700	1.68629000	9.75615900	5.72717200	-0.78594100	7.48229000	-5.27883500	7.97441000	5.41721400	1.41545000	11.03152700
710	7.09000000	10.51729200	-0.24592400	6.73131600	9.72296100	0.26372800	5.72455600	7.80610600	3.57888800	-0.94996300	9.90085000	-3.58896900	-1.07468800	14.05468300	0.08589000	1.35874800	9.98539900	5.11850300	-0.82178900	14.65322900	-9.86465100	10.62428000	5.15387900	1.05568600	11.18520900
711	7.10000000	10.20555300	-0.38529600	6.60914600	9.15131800	-0.71404800	5.65429700	7.26305400	1.60204600	-2.34898500	8.78336000	-2.36863300	-0.13351600	14.83833600	0.35671900	1.23440700	10.01730500	3.76865000	-0.78915600	9.68222500	-8.61846300	5.57419200	5.22228600	0.99091200	11.42736500
712	7.11000000	9.93895300	-0.51302800	6.51530200	8.72842600	-1.78752400	5.58584500	8.92974800	0.52965300	-3.84158800	8.52054800	-1.15676300	1.15091800	14.68821600	2.16605700	1.19638400	10.03643600	2.18278700	-0.65730800	7.32587000	4.39474100	12.73610500	5.95391900	1.47251500	11.62997600
713	7.12000000	9.52582400	-0.57535500	6.29822800	8.35787800	-2.81012500	5.64413000	11.00332000	1.69564700	-3.49179700	8.34524800	-0.29555000	2.44594000	13.82687100	4.91069900	1.42079600	9.58425200	0.82815500	-0.09155000	7.89558400	-0.07155700	10.08989500	7.59348300	2.36103400	11.45080700
